<?xml version="1.0" encoding="UTF-8" standalone="no"?>
<!-- Created with Inkscape (http://www.inkscape.org/) -->

<svg
   xmlns:dc="http://purl.org/dc/elements/1.1/"
   xmlns:cc="http://creativecommons.org/ns#"
   xmlns:rdf="http://www.w3.org/1999/02/22-rdf-syntax-ns#"
   xmlns:svg="http://www.w3.org/2000/svg"
   xmlns="http://www.w3.org/2000/svg"
   xmlns:sodipodi="http://sodipodi.sourceforge.net/DTD/sodipodi-0.dtd"
   xmlns:inkscape="http://www.inkscape.org/namespaces/inkscape"
   width="210mm"
   height="297mm"
   viewBox="0 0 210 297"
   version="1.1"
   id="svg8"
   inkscape:version="0.92.4 5da689c313, 2019-01-14"
   sodipodi:docname="Missed.svg">
  <defs
     id="defs2" />
  <sodipodi:namedview
     id="base"
     pagecolor="#ffffff"
     bordercolor="#666666"
     borderopacity="1.0"
     inkscape:pageopacity="0.0"
     inkscape:pageshadow="2"
     inkscape:zoom="0.49497475"
     inkscape:cx="200.06026"
     inkscape:cy="630.14092"
     inkscape:document-units="mm"
     inkscape:current-layer="layer1"
     showgrid="false"
     inkscape:snap-global="false"
     inkscape:window-width="1236"
     inkscape:window-height="946"
     inkscape:window-x="20"
     inkscape:window-y="38"
     inkscape:window-maximized="0" />
  <metadata
     id="metadata5">
    <rdf:RDF>
      <cc:Work
         rdf:about="">
        <dc:format>image/svg+xml</dc:format>
        <dc:type
           rdf:resource="http://purl.org/dc/dcmitype/StillImage" />
        <dc:title />
      </cc:Work>
    </rdf:RDF>
  </metadata>
  <g
     inkscape:label="Layer 1"
     inkscape:groupmode="layer"
     id="layer1">
    <ellipse
       style="opacity:1;fill:#88d2e6;fill-opacity:1;stroke:none;stroke-width:0.01740858;stroke-linejoin:round;stroke-miterlimit:4;stroke-dasharray:none;stroke-dashoffset:0;stroke-opacity:1;paint-order:stroke markers fill"
       id="path815"
       cx="42.554771"
       cy="133.05098"
       rx="2.9850943"
       ry="3.0830297"
       inkscape:export-xdpi="96"
       inkscape:export-ydpi="96" />
    <path
       style="fill:#88d2e6;fill-opacity:1;stroke:none;stroke-width:0.03417626px;stroke-linecap:butt;stroke-linejoin:miter;stroke-opacity:1"
       d="m 42.102209,130.92325 c -0.131522,-0.11587 -0.343074,-0.70998 -0.628927,-1.11712 -1.566469,-2.0827 0.57134,-0.95329 1.08123,-0.59089 0.589342,0.28131 0.794151,0.9818 0.743154,1.26136 z"
       id="path817"
       inkscape:connector-curvature="0"
       sodipodi:nodetypes="ccccc"
       inkscape:export-xdpi="96"
       inkscape:export-ydpi="96" />
    <path
       sodipodi:nodetypes="ccccc"
       inkscape:connector-curvature="0"
       id="path821"
       d="m 39.984392,132.29908 c -0.122856,0.002 -0.42664,-0.21449 -0.745986,-0.34734 -2.032322,-0.45222 -0.592107,-0.79832 0.177007,-1.14449 0.656552,-0.40757 1.200255,0.0513 1.28365,0.32972 z"
       style="fill:#88d2e6;fill-opacity:1;stroke:none;stroke-width:0.03131679px;stroke-linecap:butt;stroke-linejoin:miter;stroke-opacity:1"
       inkscape:export-xdpi="96"
       inkscape:export-ydpi="96" />
    <path
       style="fill:#88d2e6;fill-opacity:1;stroke:none;stroke-width:0.03619783px;stroke-linecap:butt;stroke-linejoin:miter;stroke-opacity:1"
       d="m 42.767677,130.21858 c 0.496948,-0.10439 1.104004,-0.39157 1.617462,-0.61021 0.816272,-0.34759 2.981551,-0.22786 1.406001,0.26088 -0.309247,0.0959 -0.503878,0.61171 -0.958454,1.06797 -0.47705,0.83366 -1.338277,0.8743 -1.592136,0.71081 z"
       id="path823"
       inkscape:connector-curvature="0"
       sodipodi:nodetypes="cssccc"
       inkscape:export-xdpi="96"
       inkscape:export-ydpi="96" />
    <path
       sodipodi:nodetypes="ccccc"
       inkscape:connector-curvature="0"
       id="path825"
       d="m 45.161327,133.68837 c 0.116176,0.0528 0.345172,0.39441 0.610726,0.66361 1.096542,0.3495 0.26383,0.89582 -0.463308,0.99521 -0.722608,0.086 -1.114335,-0.59085 -1.12043,-0.89013 z"
       style="fill:#88d2e6;fill-opacity:1;stroke:none;stroke-width:0.03131679px;stroke-linecap:butt;stroke-linejoin:miter;stroke-opacity:1"
       inkscape:export-xdpi="96"
       inkscape:export-ydpi="96" />
    <path
       style="fill:#88d2e6;fill-opacity:1;stroke:none;stroke-width:0.03131679px;stroke-linecap:butt;stroke-linejoin:miter;stroke-opacity:1"
       d="m 41.321562,135.65929 c -0.02901,0.15754 -0.0896,0.16385 -0.267959,0.5379 -0.997513,2.35893 -1.000884,0.94087 -0.969604,-0.18969 -0.132263,-0.94161 0.341918,-1.51945 0.567108,-1.55534 z"
       id="path827"
       inkscape:connector-curvature="0"
       sodipodi:nodetypes="ccccc"
       inkscape:transform-center-x="-0.075251421"
       inkscape:transform-center-y="0.10128155"
       inkscape:export-xdpi="96"
       inkscape:export-ydpi="96" />
    <path
       inkscape:transform-center-y="0.19327092"
       inkscape:transform-center-x="-0.06888452"
       sodipodi:nodetypes="ccccc"
       inkscape:connector-curvature="0"
       id="path829"
       d="m 43.587711,135.45449 c 0.04424,0.15127 -0.0061,0.60255 0.0086,1.04403 0.218188,0.69263 -0.505527,0.55295 -0.875161,0.17336 -0.515366,-0.67406 -0.375432,-1.50561 -0.205928,-1.70455 z"
       style="fill:#88d2e6;fill-opacity:1;stroke:none;stroke-width:0.03131679px;stroke-linecap:butt;stroke-linejoin:miter;stroke-opacity:1"
       inkscape:export-xdpi="96"
       inkscape:export-ydpi="96" />
    <path
       style="fill:#88d2e6;fill-opacity:1;stroke:none;stroke-width:0.03131679px;stroke-linecap:butt;stroke-linejoin:miter;stroke-opacity:1"
       d="m 44.357077,130.71121 c 0.111522,-0.0448 0.843358,0.13269 1.160627,0.15259 0.792806,-0.0862 0.935425,-0.53944 0.526717,0.46958 -0.596163,1.45678 -1.537843,1.14371 -1.712061,0.84306 z"
       id="path831"
       inkscape:connector-curvature="0"
       sodipodi:nodetypes="ccccc"
       inkscape:export-xdpi="96"
       inkscape:export-ydpi="96" />
    <path
       sodipodi:nodetypes="ccccc"
       inkscape:connector-curvature="0"
       id="path833"
       d="m 45.340812,132.01543 c 0.143306,0.0643 0.459333,0.56576 0.803159,0.83011 1.743831,0.0893 0.787506,0.27375 -0.104745,0.63275 -1.067751,0.61306 -1.660204,-0.32102 -1.668899,-0.68861 z"
       style="fill:#88d2e6;fill-opacity:1;stroke:none;stroke-width:0.03131679px;stroke-linecap:butt;stroke-linejoin:miter;stroke-opacity:1"
       inkscape:transform-center-x="0.27259557"
       inkscape:transform-center-y="-0.10279311"
       inkscape:export-xdpi="96"
       inkscape:export-ydpi="96" />
    <path
       style="fill:#88d2e6;fill-opacity:1;stroke:none;stroke-width:0.03131679px;stroke-linecap:butt;stroke-linejoin:miter;stroke-opacity:1"
       d="m 44.678055,134.63212 c 0.04423,0.15126 0.241104,0.25864 0.256135,0.70017 1.578476,1.41336 -0.09954,1.22484 -1.122447,0.51721 -0.515369,-0.67406 -0.375433,-1.50561 -0.205928,-1.70455 z"
       id="path837"
       inkscape:connector-curvature="0"
       sodipodi:nodetypes="ccccc"
       inkscape:transform-center-x="-0.069134244"
       inkscape:transform-center-y="0.19327562"
       inkscape:export-xdpi="96"
       inkscape:export-ydpi="96" />
    <path
       inkscape:transform-center-y="0.23008351"
       inkscape:transform-center-x="-0.083277101"
       sodipodi:nodetypes="ccccc"
       inkscape:connector-curvature="0"
       id="path839"
       d="m 42.764454,135.66592 c -0.01951,0.16009 -0.235197,0.51648 -0.390591,0.90794 -0.07281,1.48585 -0.623412,0.49671 -0.822275,-0.4318 -0.188158,-0.92488 0.249938,-1.55036 0.472277,-1.60959 z"
       style="fill:#88d2e6;fill-opacity:1;stroke:none;stroke-width:0.03131679px;stroke-linecap:butt;stroke-linejoin:miter;stroke-opacity:1"
       inkscape:export-xdpi="96"
       inkscape:export-ydpi="96" />
    <path
       style="fill:#88d2e6;fill-opacity:1;stroke:none;stroke-width:0.03131679px;stroke-linecap:butt;stroke-linejoin:miter;stroke-opacity:1"
       d="m 39.931143,134.41238 c -0.117859,0.0456 -0.454374,-0.0586 -0.788954,-0.0757 -1.519876,1.35265 -1.408235,0.27047 -0.05766,-1.16559 0.552024,-0.62145 1.168104,-0.36782 1.304114,-0.12825 z"
       id="path841"
       inkscape:connector-curvature="0"
       sodipodi:nodetypes="ccccc"
       inkscape:transform-center-x="-0.089639827"
       inkscape:transform-center-y="-0.52616691"
       inkscape:export-xdpi="96"
       inkscape:export-ydpi="96" />
    <path
       inkscape:transform-center-y="-0.32011377"
       inkscape:transform-center-x="-0.089637771"
       sodipodi:nodetypes="ccccc"
       inkscape:connector-curvature="0"
       id="path843"
       d="m 40.197086,132.90018 c -0.117859,0.0278 -0.454375,-0.0356 -0.788963,-0.0461 -1.047908,0.33533 -0.607544,-0.32229 -0.05766,-0.70905 0.552031,-0.37804 1.16811,-0.22375 1.304117,-0.0779 z"
       style="fill:#88d2e6;fill-opacity:1;stroke:none;stroke-width:0.02442552px;stroke-linecap:butt;stroke-linejoin:miter;stroke-opacity:1"
       inkscape:export-xdpi="96"
       inkscape:export-ydpi="96" />
    <path
       style="fill:#88d2e6;fill-opacity:1;stroke:none;stroke-width:0.02442552px;stroke-linecap:butt;stroke-linejoin:miter;stroke-opacity:1"
       d="m 40.465289,134.83961 c -0.08886,0.10597 -0.399612,0.28767 -0.687521,0.51289 -0.753944,1.01747 -0.644611,0.15173 -0.333612,-0.56094 0.316297,-0.70677 0.900679,-1.00694 1.074539,-0.9785 z"
       id="path845"
       inkscape:connector-curvature="0"
       sodipodi:nodetypes="ccccc"
       inkscape:transform-center-x="0.48313336"
       inkscape:transform-center-y="0.011413031"
       inkscape:export-xdpi="96"
       inkscape:export-ydpi="96" />
    <path
       inkscape:transform-center-y="-0.49276809"
       inkscape:transform-center-x="0.31285214"
       sodipodi:nodetypes="ccccc"
       inkscape:connector-curvature="0"
       id="path847"
       d="m 41.048867,130.94337 c -0.132171,-0.0375 -0.464836,-0.3022 -0.812088,-0.50717 -2.409696,-0.98397 -0.764762,-0.85116 0.161896,-0.81961 0.696822,-0.1002 1.293868,0.42716 1.390664,0.66742 z"
       style="fill:#88d2e6;fill-opacity:1;stroke:none;stroke-width:0.02830556px;stroke-linecap:butt;stroke-linejoin:miter;stroke-opacity:1"
       inkscape:export-xdpi="96"
       inkscape:export-ydpi="96" />
    <path
       style="fill:#52bedb;fill-opacity:1;stroke:none;stroke-width:0.26589039px;stroke-linecap:butt;stroke-linejoin:miter;stroke-opacity:1"
       d="m 42.741055,130.33213 c 1.214494,-0.53177 2.326147,-0.97392 3.576596,-0.7619 -1.464704,0.22642 -2.093237,1.4274 -2.763464,2.55543 z"
       id="path857"
       inkscape:connector-curvature="0"
       sodipodi:nodetypes="cccc"
       inkscape:export-xdpi="96"
       inkscape:export-ydpi="96" />
    <path
       sodipodi:nodetypes="cccc"
       inkscape:connector-curvature="0"
       id="path859"
       d="m 42.915914,130.51046 c -1.214496,-0.53178 -2.500999,-1.00634 -3.751457,-0.79433 1.464717,0.22639 2.043295,1.18471 2.71353,2.31275 z"
       style="fill:#52bedb;fill-opacity:1;stroke:none;stroke-width:0.26589039px;stroke-linecap:butt;stroke-linejoin:miter;stroke-opacity:1"
       inkscape:export-xdpi="96"
       inkscape:export-ydpi="96" />
    <path
       style="fill:#c1e1ea;fill-opacity:1;stroke:none;stroke-width:0.19020189px;stroke-linecap:butt;stroke-linejoin:miter;stroke-opacity:1"
       d="m 43.190558,130.86018 -0.158999,0.88877 -1.097106,-0.21767 c 0.386283,-1.30381 -0.420764,-2.23257 -0.07148,-2.24338 0.269073,-0.007 1.044729,0.4985 1.327567,1.57228 z"
       id="path968"
       inkscape:connector-curvature="0"
       sodipodi:nodetypes="cccsc"
       inkscape:export-xdpi="96"
       inkscape:export-ydpi="96" />
    <path
       style="fill:#c1e1ea;fill-opacity:1;stroke:none;stroke-width:0.19996214px;stroke-linecap:butt;stroke-linejoin:miter;stroke-opacity:1"
       d="m 42.460928,131.17961 -1.107941,0.33262 c -0.816916,-1.78657 -0.641373,-1.60226 1.107941,-0.33262 z"
       id="path970"
       inkscape:connector-curvature="0"
       sodipodi:nodetypes="ccc"
       inkscape:export-xdpi="96"
       inkscape:export-ydpi="96" />
    <path
       style="fill:#c1e1ea;fill-opacity:1;stroke:none;stroke-width:0.17019288px;stroke-linecap:butt;stroke-linejoin:miter;stroke-opacity:1"
       d="m 41.511153,131.41324 c -1.851691,-0.96771 -3.484622,0.84636 -0.377612,0.4532 l 0.518202,-0.46632 z"
       id="path972"
       inkscape:connector-curvature="0"
       sodipodi:nodetypes="cccc"
       inkscape:export-xdpi="96"
       inkscape:export-ydpi="96" />
    <path
       style="fill:#c1e1ea;fill-opacity:1;stroke:none;stroke-width:0.18216811px;stroke-linecap:butt;stroke-linejoin:miter;stroke-opacity:1"
       d="m 41.335413,132.08599 c -1.086444,-0.0237 -1.479103,-0.21964 -2.080212,0.56417 0.884062,-0.0928 1.233618,-0.33936 2.080212,-0.56417 z"
       id="path978"
       inkscape:connector-curvature="0"
       sodipodi:nodetypes="ccc"
       inkscape:export-xdpi="96"
       inkscape:export-ydpi="96" />
    <path
       style="fill:#52bedb;fill-opacity:1;stroke:none;stroke-width:0.26589039px;stroke-linecap:butt;stroke-linejoin:miter;stroke-opacity:1"
       d="m 41.21201,132.63167 c -0.897659,0.98931 -1.700685,1.80969 -1.923035,3.08233 0.699162,-1.33191 2.129793,-0.85383 3.396416,-1.12062 z"
       id="path861"
       inkscape:connector-curvature="0"
       sodipodi:nodetypes="cccc"
       inkscape:transform-center-x="-0.44026521"
       inkscape:transform-center-y="0.82086158"
       inkscape:export-xdpi="96"
       inkscape:export-ydpi="96" />
    <path
       style="fill:#c1e1ea;fill-opacity:1;stroke:none;stroke-width:0.18211773px;stroke-linecap:butt;stroke-linejoin:miter;stroke-opacity:1"
       d="m 38.546251,134.35863 c 0.240959,-1.00479 1.465255,-1.53169 2.358143,-2.03017 l 0.712199,1.32536 c -1.239788,-0.20524 -2.074058,0.11588 -3.070342,0.70481 z"
       id="path974"
       inkscape:connector-curvature="0"
       sodipodi:nodetypes="cccc"
       inkscape:export-xdpi="96"
       inkscape:export-ydpi="96" />
    <path
       style="fill:#c1e1ea;fill-opacity:1;stroke:none;stroke-width:0.22339106px;stroke-linecap:butt;stroke-linejoin:miter;stroke-opacity:1"
       d="m 41.176015,133.64099 1.188572,1.16175 c -2.142985,0.19348 -3.555176,0.24783 -1.188572,-1.16175 z"
       id="path976"
       inkscape:connector-curvature="0"
       sodipodi:nodetypes="ccc"
       inkscape:export-xdpi="96"
       inkscape:export-ydpi="96" />
    <path
       style="fill:#c1e1ea;fill-opacity:1;stroke:none;stroke-width:0.26623714px;stroke-linecap:butt;stroke-linejoin:miter;stroke-opacity:1"
       d="m 41.165381,131.41699 2.699131,0.96088 c 0.969253,-1.88603 1.090862,-2.55487 0.124193,-2.06763 -0.829048,0.41787 -1.968214,0.95418 -2.823344,1.10675 z"
       id="path980"
       inkscape:connector-curvature="0"
       sodipodi:nodetypes="ccsc"
       inkscape:export-xdpi="96"
       inkscape:export-ydpi="96" />
    <path
       style="fill:#c1e1ea;fill-opacity:1;stroke:none;stroke-width:0.19996214px;stroke-linecap:butt;stroke-linejoin:miter;stroke-opacity:1"
       d="m 44.129641,131.65735 c 0.705724,-0.14145 1.039995,-0.14263 1.682131,-0.4596 -0.68093,1.5252 -1.651843,2.14467 -2.178299,2.0152 z"
       id="path982"
       inkscape:connector-curvature="0"
       sodipodi:nodetypes="cccc"
       inkscape:export-xdpi="96"
       inkscape:export-ydpi="96" />
    <path
       style="fill:#c1e1ea;fill-opacity:1;stroke:none;stroke-width:0.19996214px;stroke-linecap:butt;stroke-linejoin:miter;stroke-opacity:1"
       d="m 44.199934,132.61866 1.316446,0.39519 0.624265,0.23083 c -0.80983,0.4967 -2.081795,0.64369 -3.098623,0.52554 z"
       id="path984"
       inkscape:connector-curvature="0"
       sodipodi:nodetypes="ccccc"
       inkscape:export-xdpi="96"
       inkscape:export-ydpi="96" />
    <path
       inkscape:transform-center-y="0.82087461"
       inkscape:transform-center-x="0.44026564"
       sodipodi:nodetypes="cccc"
       inkscape:connector-curvature="0"
       id="path863"
       d="m 43.399441,133.34494 c 0.897656,0.98929 1.955017,1.69621 2.177363,2.96886 -0.699153,-1.33193 -2.743814,-0.96961 -4.01043,-1.23641 z"
       style="fill:#52bedb;fill-opacity:1;stroke:none;stroke-width:0.26589039px;stroke-linecap:butt;stroke-linejoin:miter;stroke-opacity:1"
       inkscape:export-xdpi="96"
       inkscape:export-ydpi="96" />
    <path
       style="fill:#c1e1ea;fill-opacity:1;stroke:none;stroke-width:0.19996214px;stroke-linecap:butt;stroke-linejoin:miter;stroke-opacity:1"
       d="m 43.879456,133.34797 1.875447,1.16591 c -0.687858,0.74655 -0.953484,0.55161 -1.853719,0.35394 z"
       id="path986"
       inkscape:connector-curvature="0"
       sodipodi:nodetypes="cccc"
       inkscape:export-xdpi="96"
       inkscape:export-ydpi="96" />
    <path
       style="fill:#c1e1ea;fill-opacity:1;stroke:none;stroke-width:0.19996214px;stroke-linecap:butt;stroke-linejoin:miter;stroke-opacity:1"
       d="m 42.143804,137.0988 c -0.48912,-1.37207 -0.71672,-1.56343 -0.786584,-2.32714 l 0.751438,-0.0308 c 0.0646,0.81217 0.177516,0.74227 -0.09202,1.51503 z"
       id="path988"
       inkscape:connector-curvature="0"
       sodipodi:nodetypes="ccccc"
       inkscape:export-xdpi="96"
       inkscape:export-ydpi="96" />
    <path
       style="fill:#c1e1ea;fill-opacity:1;stroke:none;stroke-width:0.19996214px;stroke-linecap:butt;stroke-linejoin:miter;stroke-opacity:1"
       d="m 41.352987,134.61386 -0.552632,-0.2734 c -0.234752,0.95782 -0.552387,1.78181 -0.396352,2.44998 0.336511,-0.74698 0.385379,-1.84598 1.267815,-1.9249 z"
       id="path990"
       inkscape:connector-curvature="0"
       sodipodi:nodetypes="ccccc"
       inkscape:export-xdpi="96"
       inkscape:export-ydpi="96" />
    <path
       style="fill:#c1e1ea;fill-opacity:1;stroke:none;stroke-width:0.19996214px;stroke-linecap:butt;stroke-linejoin:miter;stroke-opacity:1"
       d="m 42.688596,134.75896 0.984127,0.81622 1.012223,0.22933 -0.179299,-0.34874 -0.754159,-1.62421 z"
       id="path994"
       inkscape:connector-curvature="0"
       sodipodi:nodetypes="cccccc"
       inkscape:export-xdpi="96"
       inkscape:export-ydpi="96" />
    <path
       style="fill:#c1e1ea;fill-opacity:1;stroke:none;stroke-width:0.19996214px;stroke-linecap:butt;stroke-linejoin:miter;stroke-opacity:1"
       d="m 42.117134,134.60799 c -0.233068,0.44052 0.501519,1.38304 0.772764,1.69483 0.3644,0.0869 0.326452,0.64015 0.468682,0.13686 l -0.353661,-1.20912 -0.268637,-0.69083 z"
       id="path992"
       inkscape:connector-curvature="0"
       sodipodi:nodetypes="cccccc"
       inkscape:export-xdpi="96"
       inkscape:export-ydpi="96" />
    <path
       style="fill:#52bedb;fill-opacity:1;stroke:none;stroke-width:0.18239424px;stroke-linecap:butt;stroke-linejoin:miter;stroke-opacity:1"
       d="m 42.27494,131.33278 c -0.342869,-1.45542 0.371772,-0.12449 0.803689,0.0821 1.02076,-1.07868 0.619147,0.3823 0.951764,0.31032 1.632285,-0.2347 0.159806,0.22248 0.19936,0.92796 1.873256,0.45754 -0.681445,0.61144 -0.09225,0.63481 0.557315,0.44008 0.271526,0.96641 -0.163705,0.88046 -0.347522,0.82664 0.202197,0.78333 -0.693238,0.18394 -0.524426,1.25088 0.122405,0.95156 -0.768355,0.24191 -0.444344,-0.34008 0.06463,2.00617 -0.492625,-0.17266 -1.746995,1.14797 -0.26265,-0.44165 -0.798367,-0.5797 -1.284857,0.76664 -0.113055,0.18085 -0.175623,-0.59394 -0.140817,-0.0708 -1.364395,0.39933 -0.008,-0.76225 -0.561436,-0.071 -0.64303,0.20389 -0.09813,-0.40036 -0.448215,-0.93968 0.264875,-0.11211 0.594441,-0.35103 0.200182,-0.84934 -0.465239,-0.61251 0.741077,-0.40148 z"
       id="path849"
       inkscape:connector-curvature="0"
       sodipodi:nodetypes="cccccccccccccccc"
       inkscape:export-xdpi="96"
       inkscape:export-ydpi="96" />
  </g>
</svg>
